<?xml version="1.0" standalone="no"?>
<!DOCTYPE svg PUBLIC "-//W3C//DTD SVG 20010904//EN"
 "http://www.w3.org/TR/2001/REC-SVG-20010904/DTD/svg10.dtd">
<svg version="1.0" xmlns="http://www.w3.org/2000/svg"
 width="512.000000pt" height="512.000000pt" viewBox="0 0 512.000000 512.000000"
 preserveAspectRatio="xMidYMid meet">

<g transform="translate(0.000000,512.000000) scale(0.100000,-0.100000)"
fill="#000000" stroke="none">
<path d="M2393 4896 c-399 -76 -699 -361 -794 -753 -26 -104 -30 -302 -10
-398 48 -228 167 -434 332 -572 63 -52 76 -69 69 -82 -302 -523 -580 -996
-587 -994 -4 1 -41 14 -81 28 -115 40 -207 56 -332 56 -260 0 -485 -87 -669
-257 -98 -91 -163 -178 -222 -299 -72 -148 -93 -246 -93 -430 -1 -125 3 -164
22 -234 143 -527 654 -842 1175 -725 392 89 692 410 758 814 l12 70 587 0 587
0 13 -77 c106 -658 820 -1024 1415 -725 100 49 149 85 239 171 211 204 318
470 303 756 -23 426 -298 774 -713 902 -83 25 -101 27 -269 27 -190 0 -238 -8
-372 -62 l-52 -21 -19 32 c-11 18 -138 237 -282 487 -145 250 -269 465 -277
476 -13 20 -9 25 57 79 245 201 387 545 351 854 -30 251 -126 448 -302 616
-126 121 -279 205 -440 245 -109 27 -306 35 -406 16z m337 -166 c117 -24 266
-95 358 -171 126 -104 230 -270 273 -434 28 -108 30 -281 5 -385 -21 -88 -88
-234 -139 -304 -31 -43 -37 -47 -43 -30 -53 161 -159 297 -291 373 l-60 35 43
58 c119 163 105 376 -36 518 -156 155 -403 155 -559 -1 -145 -146 -155 -375
-21 -537 l29 -36 -63 -38 c-137 -82 -227 -197 -290 -372 -6 -17 -12 -13 -43
30 -49 68 -117 215 -139 299 -25 101 -23 285 5 390 46 175 157 344 292 447
205 156 433 209 679 158z m-60 -414 c91 -45 141 -153 119 -256 -42 -196 -301
-251 -418 -89 -98 135 -33 321 127 365 58 16 113 10 172 -20z m21 -622 c178
-53 315 -200 350 -377 14 -68 17 -64 -101 -126 -123 -64 -196 -83 -350 -88
-165 -7 -257 12 -395 82 -133 66 -130 63 -116 132 26 133 130 276 241 333 116
60 260 77 371 44z m-491 -690 c212 -86 508 -86 720 0 35 14 64 25 65 23 1 -1
133 -231 295 -510 l293 -508 -24 -16 c-59 -39 -217 -213 -263 -291 -56 -93
-110 -242 -127 -349 l-12 -73 -587 0 -587 0 -12 73 c-17 107 -71 256 -127 349
-46 78 -204 252 -263 291 l-23 16 293 510 c162 281 294 510 295 511 0 0 29
-12 64 -26z m-1103 -985 c275 -37 513 -211 633 -461 59 -123 81 -220 81 -358
0 -177 -44 -319 -144 -467 -43 -64 -57 -76 -57 -46 0 9 -18 55 -41 101 -48
100 -158 218 -251 271 l-57 32 43 58 c59 81 79 149 74 259 -2 74 -8 97 -35
153 -39 80 -111 150 -191 187 -50 24 -69 27 -162 27 -95 0 -111 -3 -168 -29
-82 -38 -172 -132 -201 -211 -53 -142 -27 -299 69 -408 l30 -34 -65 -39 c-119
-69 -223 -192 -275 -324 -12 -30 -23 -56 -25 -58 -5 -5 -80 108 -108 165 -15
28 -39 91 -53 140 -23 76 -27 106 -27 223 0 118 4 146 27 225 60 199 174 354
344 466 107 70 215 109 372 133 50 7 110 6 187 -5z m3216 -15 c38 -7 103 -28
145 -46 459 -199 640 -749 388 -1178 -24 -41 -53 -83 -63 -93 -20 -17 -21 -16
-42 41 -46 127 -155 256 -276 327 l-65 38 36 40 c20 22 48 65 63 96 22 49 26
69 26 156 0 93 -2 105 -33 167 -43 88 -106 152 -190 191 -61 29 -75 32 -167
32 -92 0 -106 -3 -167 -32 -85 -40 -151 -106 -191 -191 -29 -61 -32 -75 -32
-167 0 -88 3 -107 27 -157 15 -32 41 -76 59 -98 18 -22 30 -42 28 -44 -2 -2
-20 -11 -39 -21 -62 -32 -148 -104 -195 -165 -45 -59 -115 -191 -115 -220 -1
-28 -67 58 -109 143 -56 112 -81 203 -88 324 -17 304 120 578 371 742 188 122
399 161 629 115z m-3252 -396 c52 -15 117 -73 140 -122 24 -54 24 -148 0 -202
-73 -161 -308 -179 -408 -31 -125 185 53 420 268 355z m3195 -24 c30 -18 60
-48 79 -78 26 -43 30 -59 30 -121 0 -62 -4 -78 -30 -121 -98 -158 -333 -147
-414 19 -25 51 -28 141 -8 190 56 133 221 187 343 111z m-3163 -609 c184 -39
342 -200 377 -385 10 -51 9 -56 -11 -71 -51 -38 -160 -89 -244 -115 -77 -23
-108 -27 -220 -28 -95 0 -149 5 -200 18 -77 20 -236 91 -275 123 -24 20 -24
22 -12 79 38 184 184 334 369 378 76 19 133 19 216 1z m3155 0 c34 -8 86 -27
115 -41 70 -36 175 -144 210 -217 36 -75 55 -162 41 -185 -16 -27 -191 -110
-279 -134 -106 -28 -289 -30 -390 -4 -80 21 -223 85 -271 121 -30 23 -31 26
-23 67 21 113 64 191 148 271 122 117 284 161 449 122z"/>
</g>
</svg>
