<?xml version="1.0" standalone="no"?>
<!DOCTYPE svg PUBLIC "-//W3C//DTD SVG 20010904//EN"
 "http://www.w3.org/TR/2001/REC-SVG-20010904/DTD/svg10.dtd">
<svg version="1.0" xmlns="http://www.w3.org/2000/svg"
 width="512.000000pt" height="512.000000pt" viewBox="0 0 512.000000 512.000000"
 preserveAspectRatio="xMidYMid meet">

<g transform="translate(0.000000,512.000000) scale(0.100000,-0.100000)"
fill="#000000" stroke="none">
<path d="M745 5095 c-33 -32 -32 -47 11 -160 20 -53 33 -99 30 -102 -2 -3 -66
14 -140 37 -131 42 -136 42 -161 26 -49 -32 -53 -100 -6 -125 11 -6 153 -53
316 -105 162 -52 315 -104 338 -116 52 -27 130 -102 161 -155 38 -64 56 -141
56 -235 0 -158 42 -241 178 -352 96 -79 135 -88 171 -42 39 49 24 80 -76 158
-61 48 -81 71 -101 115 l-26 56 30 415 c33 476 38 473 49 -32 7 -344 11 -374
53 -422 9 -10 150 -119 312 -241 162 -122 312 -240 332 -263 75 -84 89 -128
133 -425 20 -133 38 -254 41 -268 4 -23 0 -28 -45 -48 -51 -22 -86 -25 -140
-15 l-31 7 0 226 c0 124 -5 255 -11 291 -19 120 -72 193 -222 306 -70 52 -106
57 -136 18 -42 -53 -30 -77 79 -164 104 -83 128 -123 137 -231 6 -68 5 -72
-13 -65 -10 4 -127 39 -260 79 l-240 71 -52 72 c-77 107 -113 134 -295 218
-127 59 -216 143 -270 256 -42 90 -53 140 -67 325 -13 161 -25 188 -81 193
-26 2 -40 -3 -58 -22 -23 -24 -23 -27 -14 -140 4 -64 6 -116 3 -116 -2 0 -106
43 -231 95 -125 52 -234 95 -243 95 -51 0 -87 -59 -64 -106 11 -25 50 -44 290
-144 273 -113 278 -116 289 -150 7 -19 27 -65 45 -102 l34 -68 -112 40 c-61
22 -127 40 -146 40 -82 0 -142 -61 -142 -145 0 -94 0 -95 409 -311 l244 -129
73 -110 c39 -60 71 -111 70 -111 0 -1 -37 5 -81 13 -64 11 -98 12 -167 3 -49
-6 -99 -15 -113 -20 -23 -9 -54 9 -307 180 -169 114 -291 190 -305 190 -30 0
-73 -42 -73 -70 0 -12 5 -30 10 -40 6 -11 111 -87 235 -171 124 -84 225 -155
225 -159 0 -4 -43 -22 -95 -40 -104 -36 -128 -55 -128 -100 0 -41 29 -70 69
-70 17 0 119 32 224 70 222 81 295 96 393 80 142 -22 240 -86 342 -221 85
-113 123 -144 282 -228 91 -49 135 -78 151 -102 l23 -34 -4 -540 c-4 -512 -5
-545 -25 -630 -12 -49 -29 -111 -38 -137 -14 -42 -14 -50 0 -76 22 -44 72 -56
109 -27 22 16 58 126 84 251 16 80 18 148 18 649 0 556 0 560 -22 601 -33 62
-90 107 -223 175 -91 46 -135 75 -172 113 -26 28 -132 182 -234 341 -102 160
-197 302 -212 318 -14 15 -146 92 -293 170 -147 78 -266 143 -265 145 4 4 583
-196 616 -213 51 -26 89 -72 296 -360 188 -260 224 -303 280 -333 39 -21 427
-102 486 -102 56 0 74 8 381 162 252 127 331 172 363 205 32 33 56 77 109 205
44 105 70 181 73 214 5 65 -19 144 -61 190 -16 19 -152 145 -302 279 -307 276
-294 259 -455 565 -56 107 -118 223 -137 258 -19 34 -33 62 -30 62 2 0 80
-111 173 -246 93 -136 189 -269 213 -296 24 -27 125 -107 225 -178 179 -129
215 -146 253 -122 6 4 66 79 132 166 77 101 121 167 121 183 0 30 -42 73 -72
73 -36 0 -58 -20 -148 -139 -47 -61 -88 -111 -92 -111 -12 0 -258 178 -296
214 -75 70 -110 199 -79 296 7 25 54 108 104 186 50 77 93 149 97 161 16 52
-49 108 -99 85 -38 -17 -245 -343 -245 -385 0 -9 -3 -17 -7 -17 -5 1 -41 49
-81 109 -40 59 -85 120 -101 135 -71 68 -198 41 -237 -51 -28 -66 -21 -85 142
-392 86 -162 173 -320 194 -350 36 -53 89 -108 208 -213 l53 -47 -83 -109
c-46 -60 -99 -142 -119 -181 l-36 -72 -26 53 c-41 83 -105 152 -225 243 -116
89 -165 141 -202 215 -59 117 -64 216 -18 386 46 172 42 206 -29 220 -51 10
-74 -22 -113 -161 -30 -106 -34 -134 -35 -241 l0 -121 -57 44 -58 44 0 82 c0
45 -5 235 -10 421 -9 274 -14 346 -27 373 -35 75 -134 104 -207 61 -65 -38
-73 -65 -92 -318 -9 -124 -17 -226 -18 -227 -1 -2 -26 19 -55 46 -65 60 -138
99 -251 136 -47 15 -86 29 -88 30 -2 2 -30 74 -63 162 -34 92 -68 165 -80 176
-30 24 -66 21 -94 -8z m2254 -1495 c87 -78 111 -112 111 -155 0 -25 -95 -260
-129 -318 -12 -21 -63 -52 -203 -123 l-187 -94 -8 37 c-15 72 -9 293 11 363
29 105 87 218 170 328 l78 103 37 -33 c20 -18 74 -67 120 -108z m-1087 -526
l168 -49 0 -92 c0 -51 -4 -93 -9 -93 -39 0 -158 37 -180 56 -43 36 -185 238
-164 232 10 -3 93 -27 185 -54z"/>
<path d="M3946 5099 c-30 -24 -32 -51 -11 -149 7 -36 11 -68 7 -72 -4 -3 -48
-24 -99 -46 -50 -22 -107 -52 -126 -66 l-34 -26 -6 80 c-4 67 -10 87 -32 116
-65 85 -181 82 -247 -7 -16 -21 -58 -254 -58 -320 0 -28 44 -69 75 -69 52 0
69 34 89 170 9 69 19 126 20 128 2 1 6 -105 10 -235 9 -297 10 -293 -125 -493
-55 -82 -104 -164 -110 -182 -43 -151 69 -306 223 -308 21 0 134 25 253 55
319 83 300 90 554 -224 73 -90 127 -160 119 -155 -7 4 -86 70 -175 146 -157
134 -208 168 -254 168 -40 0 -439 -100 -478 -119 -79 -41 -112 -92 -175 -271
-78 -223 -115 -297 -173 -351 -27 -24 -129 -102 -228 -173 -216 -155 -230
-167 -263 -231 -21 -41 -27 -67 -30 -147 -4 -93 -3 -98 21 -122 33 -33 71 -33
102 -1 22 21 25 33 25 95 0 115 2 117 235 285 248 179 307 238 369 369 52 108
83 137 157 144 26 2 77 -1 111 -8 l64 -11 83 -227 c87 -236 107 -272 157 -272
29 0 74 41 74 67 0 10 -31 101 -69 203 -38 102 -67 187 -66 188 2 2 27 -1 55
-7 84 -18 116 -15 139 15 27 34 26 57 -1 88 -20 23 -49 31 -245 71 -129 26
-249 45 -288 45 l-65 0 15 38 c30 72 45 79 264 133 112 27 209 46 216 41 7 -4
95 -77 195 -162 100 -85 194 -160 208 -167 110 -50 238 62 201 174 -6 19 -40
71 -76 115 -35 44 -63 81 -61 83 2 1 73 -6 158 -16 202 -23 243 -24 263 -1 29
32 31 67 5 97 -24 27 -28 28 -296 59 l-271 31 -56 62 c-70 77 -102 101 -176
128 l-58 21 39 59 c45 68 55 72 170 74 176 3 269 13 290 33 30 28 27 81 -7
108 -26 20 -34 21 -171 14 l-144 -7 46 74 c25 40 46 85 46 99 0 36 -39 70 -78
70 -38 0 -42 -5 -195 -251 -162 -259 -204 -295 -407 -350 -131 -36 -145 -36
-181 0 -47 47 -40 69 71 236 119 178 139 226 150 361 8 102 20 139 67 201 33
45 77 69 323 172 120 51 223 100 233 112 26 32 22 74 -9 98 -35 27 -48 27
-134 -9 -40 -17 -75 -29 -76 -27 -2 2 -10 34 -18 72 -21 100 -69 132 -130 84z"/>
<path d="M2404 2292 c-28 -18 -34 -56 -34 -215 0 -151 2 -166 21 -191 26 -33
79 -36 109 -6 19 19 20 33 20 200 0 167 -1 181 -20 200 -20 20 -74 27 -96 12z"/>
<path d="M2694 1945 l-26 -26 4 -362 c5 -372 10 -430 55 -587 44 -154 162
-285 303 -335 25 -9 130 -29 234 -46 193 -30 226 -41 273 -91 26 -28 171 -328
159 -328 -2 0 -52 53 -112 118 -159 173 -128 162 -442 162 -243 0 -266 -2
-302 -20 -83 -42 -124 -139 -97 -230 l15 -51 -41 24 c-23 14 -68 39 -99 57
-72 40 -148 108 -199 176 l-39 53 0 529 c0 518 0 529 -20 550 -30 32 -82 30
-109 -4 -21 -26 -21 -36 -21 -520 l0 -494 -38 0 c-37 0 -63 -11 -183 -78 -81
-46 -149 -59 -404 -77 -126 -9 -247 -21 -268 -26 -22 -6 -73 -39 -125 -82 -48
-40 -95 -78 -105 -86 -10 -8 4 31 36 100 31 66 64 121 79 132 14 10 99 37 189
59 170 41 299 93 352 142 37 34 38 86 1 115 -15 12 -33 21 -40 21 -8 0 -52
-20 -98 -45 -67 -36 -121 -55 -260 -90 -250 -62 -262 -72 -361 -277 -69 -146
-79 -192 -50 -248 30 -59 98 -90 165 -75 18 4 79 46 143 99 l112 93 260 20
c294 24 370 41 485 113 103 64 126 58 210 -53 49 -65 137 -134 265 -207 130
-75 177 -84 239 -48 70 41 93 116 60 197 -12 30 -13 44 -4 60 10 20 18 21 244
21 l234 0 122 -132 c68 -73 139 -141 158 -152 100 -52 223 35 209 148 -2 23
-40 117 -83 210 -132 283 -177 317 -489 364 -207 32 -247 46 -319 112 -51 48
-80 103 -106 206 -32 129 -40 243 -40 562 l0 303 -25 24 c-31 32 -69 32 -101
0z"/>
</g>
</svg>
